# AST/ASF file generated using VICON BodyLanguage
# -----------------------------------------------
:version 1.10
:name VICON
:units
  mass 1.0
  length 0.45
  angle deg
:documentation
   .ast/.asf automatically generated from VICON data using
   VICON BodyBuilder and BodyLanguage model FoxedUp or BRILLIANT.MOD
:root
   order TX TY TZ RX RY RZ
   axis XYZ
   position 0 0 0  
   orientation 0 0 0 
:bonedata
  begin
     id 1 
     name lhipjoint
     direction 0.623415 -0.642378 0.445763 
     length 2.49859 
     axis 0 0 0  XYZ
  end
  begin
     id 2 
     name lfemur
     direction 0.34202 -0.939693 0  
     length 6.69689  
     axis 0 0 20  XYZ
    dof rx ry rz
    limits (-160.0 20.0)
           (-70.0 70.0)
           (-60.0 70.0)
  end
  begin
     id 3 
     name ltibia
     direction 0.34202 -0.939693 0   
     length 7.37574   
     axis 0 0 20   XYZ
    dof rx
    limits (-10.0 170.0)
  end
  begin
     id 4 
     name lfoot
     direction 0.084323 -0.231675 0.969132   
     length 2.09111   
     axis -90 7.62852e-016 20   XYZ
    dof rx rz
    limits (-45.0 90.0)
           (-70.0 20.0)
  end
  begin
     id 5 
     name ltoes
     direction 1.5357e-011 -4.21957e-011 1   
     length 1.04989   
     axis -90 7.62852e-016 20   XYZ
    dof rx
    limits (-90.0 20.0)
  end
  begin
     id 6 
     name rhipjoint
     direction -0.605402 -0.653903 0.45376   
     length 2.45455  
     axis 0 0 0  XYZ 
  end
  begin
     id 7 
     name rfemur
     direction -0.34202 -0.939693 0   
     length 6.64523   
     axis 0 0 -20   XYZ
    dof rx ry rz
    limits (-160.0 20.0)
           (-70.0 70.0)
           (-70.0 60.0)
  end
  begin
     id 8 
     name rtibia
     direction -0.34202 -0.939693 0   
     length 7.3339   
     axis 0 0 -20   XYZ
    dof rx
    limits (-10.0 170.0)
 end
 begin
     id 9 
     name rfoot
     direction -0.120854 -0.332043 0.93549   
     length 2.23135  
     axis -90 -7.62852e-016 -20   XYZ
    dof rx rz
    limits (-45.0 90.0)
           (-20.0 70.0)
  end
  begin
     id 10 
     name rtoes
     direction -1.53563e-011 -4.21914e-011 1   
     length 1.10614   
     axis -90 -7.62852e-016 -20   XYZ
    dof rx
    limits (-90.0 20.0)
  end
  begin
     id 11 
     name lowerback
     direction 0.0319682 0.998615 -0.0417941   
     length 2.02718   
     axis 0 0 0   XYZ
    dof rx ry rz
    limits (-20.0 45.0)
           (-30.0 30.0)
           (-30.0 30.0)
  end
  begin
     id 12 
     name upperback
     direction 7.63181e-005 0.995808 0.0914691   
     length 1.97539   
     axis 0 0 0   XYZ
    dof rx ry rz
    limits (-20.0 45.0)
           (-30.0 30.0)
           (-30.0 30.0)
  end
  begin
     id 13 
     name thorax
     direction -0.016423 0.993627 0.111514   
     length 2.00349   
     axis 0 0 0   XYZ
    dof rx ry rz
    limits (-20.0 45.0)
           (-30.0 30.0)
           (-30.0 30.0)
  end
  begin
     id 14 
     name lowerneck
     direction -0.174763 0.981668 -0.0760716   
     length 1.71436   
     axis 0 0 0   XYZ
    dof rx ry rz
    limits (-20.0 45.0)
           (-30.0 30.0)
           (-30.0 30.0)
  end
  begin
     id 15 
     name upperneck
     direction 0.345458 0.934587 -0.0848868   
     length 1.72805   
     axis 0 0 0   XYZ
    dof rx ry rz
    limits (-20.0 45.0)
           (-30.0 30.0)
           (-30.0 30.0)
  end
  begin
     id 16
     name head
     direction 0.13001 0.989848 -0.0574291  
     length 1.767  
     axis 0 0 0   XYZ
    dof rx ry rz
    limits (-20.0 45.0)
           (-30.0 30.0)
           (-30.0 30.0)
  end
  begin
     id 17 
     name lclavicle
     direction 0.952951 0.290122 0.0878234  
     length 3.54654  
     axis 0 0 0   XYZ
    dof ry rz
    limits (-20.0 10.0)
           (0.0 20.0)
  end
  begin
     id 18 
     name lhumerus
     direction 1 -4.48957e-011 -4.56525e-028   
     length 5.19807   
     axis 180 -30 -90   XYZ
    dof rx ry rz
    limits (-60.0 90.0)
           (-90.0 90.0)
           (-90.0 90.0)
  end
  begin
     id 19
     name lradius
     direction 1 -4.48979e-011 -2.0317e-027   
     length 3.0937   
     axis 180 -30 -90   XYZ
    dof rx
    limits (-10.0 170.0)
  end
  begin
     id 20
     name lwrist
     direction 1 -4.48953e-011 -3.05809e-027   
     length 1.54685   
     axis 8.48514e-016 90 90   XYZ
    dof ry
    limits (-180.0 0.0)
 end
  begin
     id 21 
     name lhand
     direction 1 -4.48952e-011 -6.11639e-027   
     length 0.672632   
     axis 3.9013e-015 90 90   XYZ
    dof rx rz
    limits (-90.0 90.0)
           (-45.0 45.0)
  end
  begin
     id 22 
     name lfingers
     direction 1 -4.48925e-011 -1.22426e-026   
     length 0.542293   
     axis 7.80276e-015 90 90   XYZ
    dof rx
    limits (0.0 90.0)
  end
  begin
     id 23
     name lthumb
     direction 0.707107 -6.3486e-011 0.707107   
     length 0.778628   
     axis -90 45 5.37419e-014   XYZ
    dof rx rz
    limits (-45.0 45.0)
           (-45.0 45.0)
  end
  begin
     id 24 
     name rclavicle
     direction -0.960732 0.273675 -0.0457849   
     length 3.52079  
     axis 0 0 0   XYZ 
    dof ry rz
    limits (-10.0 20.0)
           (-20.0 0.0)
  end
  begin
     id 25 
     name rhumerus
     direction -1 -4.48976e-011 -1.63613e-027  
     length 5.45222   
     axis 180 30 90   XYZ
    dof rx ry rz
    limits (-90.0 60.0)
           (-90.0 90.0)
           (-90.0 90.0)
  end
  begin
     id 26 
     name rradius
     direction -1 -4.48957e-011 -7.00033e-028   
     length 3.01284   
     axis 180 30 90   XYZ
    dof rx
    limits (-10.0 170.0)
  end
  begin
     id 27 
     name rwrist
     direction -1 -4.48983e-011 -3.05543e-027   
     length 1.50642   
     axis 8.48514e-016 -90 -90   XYZ
    dof ry
    limits (-180.0 0.0)
  end
  begin
     id 28
     name rhand
     direction -1 -4.48984e-011 -6.11072e-027   
     length 0.622296   
     axis 3.9013e-015 -90 -90   XYZ
    dof rx rz
    limits (-90.0 90.0)
           (-45.0 45.0)
  end
  begin
     id 29
     name rfingers
     direction -1 -4.48865e-011 -1.22637e-026   
     length 0.501711   
     axis 7.80276e-015 -90 -90   XYZ
    dof rx
    limits (0.0 90.0)
  end
  begin
     id 30
     name rthumb
     direction -0.707107 -6.34932e-011 0.707107   
     length 0.72036   
     axis -90 -45 -5.37419e-014   XYZ
    dof rx rz
    limits (-45.0 45.0)
           (-45.0 45.0)
  end
:hierarchy
  begin
    root lhipjoint rhipjoint lowerback
    lhipjoint lfemur
    lfemur ltibia
    ltibia lfoot
    lfoot ltoes
    rhipjoint rfemur
    rfemur rtibia
    rtibia rfoot
    rfoot rtoes
    lowerback upperback
    upperback thorax
    thorax lowerneck lclavicle rclavicle
    lowerneck upperneck
    upperneck head
    lclavicle lhumerus
    lhumerus lradius
    lradius lwrist
    lwrist lhand lthumb
    lhand lfingers
    rclavicle rhumerus
    rhumerus rradius
    rradius rwrist
    rwrist rhand rthumb
    rhand rfingers
  end

#!OML:ASF H:\Not Pregnant\Project 1\Capture day 1\Session 1\non-pregnant.ASF
:FULLY-SPECIFIED
:DEGREES
194
root -6.30207 16.1132 18.2985 -172.042 0.963932 -181.675
lowerback -2.1747 1.54675 1.89325
upperback -7.2689 2.62679 -2.01833
thorax -6.16321 1.39347 -3.27254
lowerneck 25.5776 -5.20487 -30.5606
upperneck -10.8489 -18.3507 42.719
head 0.137244 -13.3498 24.0758
rclavicle -1.23992e-014 3.77691e-015
rhumerus -41.8507 -12.6241 -78.5429
rradius 19.5865
rwrist 34.2278
rhand -2.65071 -0.018607
rfingers 7.12502
rthumb 23.0492 -28.6602
lclavicle -1.23992e-014 3.77691e-015
lhumerus -50.0308 -1.6833 84.4162
lradius 30.619
lwrist 32.3826
lhand -11.5435 -5.70746
lfingers 7.12502
lthumb 14.4968 23.7661
rfemur -13.695 -3.94135 17.9033
rtibia 57.6081
rfoot 20.4396 26.5412
rtoes -19.9186
lfemur -27.8352 0.223749 -27.1636
ltibia 33.2241
lfoot -12.8922 -16.7638
ltoes 9.98061
195
root -6.30844 16.1094 18.1815 -172.251 1.04381 -182.342
lowerback -1.75951 1.48156 1.16912
upperback -7.21355 2.50939 -2.18168
thorax -6.3674 1.3628 -3.05057
lowerneck 25.5457 -5.19277 -30.5537
upperneck -10.8268 -18.3245 42.7111
head 0.134608 -13.334 24.0695
rclavicle 1.21756e-014 4.57205e-015
rhumerus -41.9917 -12.7849 -78.1045
rradius 19.3766
rwrist 34.97
rhand -2.59638 -0.0397417
rfingers 7.12502
rthumb 23.1013 -28.6748
lclavicle 1.21756e-014 4.57205e-015
lhumerus -49.6476 -2.00968 84.571
lradius 30.9136
lwrist 33.0149
lhand -11.6075 -6.16971
lfingers 7.12502
lthumb 14.4352 23.3083
rfemur -15.5128 -4.52228 17.0832
rtibia 60.1779
rfoot 17.7973 26.5937
rtoes -20.9458
lfemur -26.8515 0.39295 -27.9434
ltibia 32.7256
lfoot -13.1738 -16.9349
ltoes 10.5393
196
root -6.31433 16.1044 18.0652 -172.42 1.08477 -182.949
lowerback -1.39997 1.41254 0.514556
upperback -7.15797 2.38555 -2.32991
thorax -6.53784 1.32825 -2.84823
lowerneck 25.4941 -5.18762 -30.5489
upperneck -10.8 -18.2989 42.6971
head 0.136904 -13.315 24.0539
rclavicle 5.7896e-015 -4.57205e-015
rhumerus -42.1085 -12.9245 -77.7047
rradius 19.2125
rwrist 35.6063
rhand -2.66834 -0.0840991
rfingers 7.12502
rthumb 23.0322 -28.7278
lclavicle 5.7896e-015 -4.57205e-015
lhumerus -49.2126 -2.34551 84.7211
lradius 31.1876
lwrist 33.6476
lhand -11.7884 -6.55826
lfingers 7.12502
lthumb 14.2609 22.9321
rfemur -17.3667 -5.10853 16.3764
rtibia 62.6146
rfoot 14.9001 26.4274
rtoes -21.9098
lfemur -25.95 0.510971 -28.6486
ltibia 32.2863
lfoot -13.463 -17.0725
ltoes 10.9803
197
root -6.32003 16.0989 17.9489 -172.538 1.08487 -183.441
lowerback -1.10982 1.3374 -0.0156414
upperback -7.11147 2.25685 -2.44308
thorax -6.67491 1.28749 -2.67521
lowerneck 25.4482 -5.17323 -30.5595
upperneck -10.7701 -18.2615 42.677
head 0.134587 -13.288 24.0426
rclavicle -6.95746e-016 -1.43125e-014
rhumerus -42.2186 -13.0046 -77.3557
rradius 19.1056
rwrist 36.0974
rhand -2.85784 -0.161287
rfingers 7.12502
rthumb 22.8504 -28.8276
lclavicle -6.95746e-016 -1.43125e-014
lhumerus -48.7409 -2.65141 84.8418
lradius 31.4173
lwrist 34.2501
lhand -11.9973 -6.98795
lfingers 7.12502
lthumb 14.0596 22.5165
rfemur -19.2401 -5.68052 15.8484
rtibia 64.879
rfoot 11.7774 25.921
rtoes -22.8209
lfemur -25.1515 0.576398 -29.2217
ltibia 31.9349
lfoot -13.7701 -17.1673
ltoes 11.301
198
root -6.3258 16.0937 17.8322 -172.606 1.03974 -183.775
lowerback -0.888898 1.25805 -0.376163
upperback -7.07601 2.12866 -2.51014
thorax -6.77915 1.23983 -2.54564
lowerneck 25.4106 -5.15635 -30.5878
upperneck -10.7438 -18.2241 42.6533
head 0.131654 -13.2596 24.0351
rclavicle 1.35671e-014 -6.16232e-015
rhumerus -42.3282 -13.036 -77.0481
rradius 19.0486
rwrist 36.4441
rhand -3.1494 -0.272878
rfingers 7.12502
rthumb 22.5706 -28.9735
lclavicle 1.35671e-014 -6.16232e-015
lhumerus -48.2425 -2.92208 84.9329
lradius 31.5972
lwrist 34.7771
lhand -12.214 -7.48215
lfingers 7.12502
lthumb 13.8508 22.0367
rfemur -21.1184 -6.22867 15.55
rtibia 66.9359
rfoot 8.53998 24.9812
rtoes -23.6284
lfemur -24.4608 0.589472 -29.6181
ltibia 31.689
lfoot -14.1219 -17.2164
ltoes 11.4711
